<svg xmlns="http://www.w3.org/2000/svg" viewBox="0 0 512.002 512.002" style="enable-background:new 0 0 512.002 512.002" xmlSpace="preserve"><path style="fill:#eff2fa" d="M174.531 440c-4.4 0-10.545-2.546-13.657-5.657L45.658 319.127c-3.111-3.111-5.657-9.257-5.657-13.657V142.53c0-4.4 2.545-10.546 5.657-13.657L160.874 13.657C163.985 10.546 170.131 8 174.531 8h162.94c4.4 0 10.545 2.546 13.657 5.657l115.216 115.216c3.111 3.111 5.657 9.257 5.657 13.657v162.94c0 4.4-2.545 10.546-5.657 13.657L351.128 434.343c-3.111 3.111-9.257 5.657-13.657 5.657h-162.94z"/><circle style="fill:#afb9d2" cx="256" cy="224" r="16"/><circle style="fill:#ffd782" cx="152" cy="273" r="24"/><path style="fill:#ffc36e" d="M168.001 289c-13.255 0-24-10.745-24-24 0-6.084 2.337-11.575 6.068-15.805-12.335 1-22.068 11.212-22.068 23.805 0 13.255 10.745 24 24 24 7.171 0 13.534-3.209 17.932-8.195-.648.052-1.27.195-1.932.195z"/><circle style="fill:#ffd782" cx="273" cy="286" r="24"/><path style="fill:#ffc36e" d="M289.001 302c-13.255 0-24-10.745-24-24 0-6.084 2.337-11.575 6.068-15.805-12.335 1-22.068 11.212-22.068 23.805 0 13.255 10.745 24 24 24 7.171 0 13.534-3.209 17.932-8.195-.648.052-1.27.195-1.932.195z"/><circle style="fill:#ffd782" cx="216" cy="286" r="24"/><path style="fill:#ffc36e" d="M232.001 302c-13.255 0-24-10.745-24-24 0-6.084 2.337-11.575 6.068-15.805-12.335 1-22.068 11.212-22.068 23.805 0 13.255 10.745 24 24 24 7.171 0 13.534-3.209 17.932-8.195-.648.052-1.27.195-1.932.195z"/><circle style="fill:#ffd782" cx="207" cy="335" r="24"/><path style="fill:#ffc36e" d="M223.001 351c-13.255 0-24-10.745-24-24 0-6.084 2.337-11.575 6.068-15.805-12.335 1-22.068 11.212-22.068 23.805 0 13.255 10.745 24 24 24 7.171 0 13.534-3.209 17.932-8.195-.648.052-1.27.195-1.932.195z"/><circle style="fill:#ffd782" cx="256" cy="335" r="24"/><path style="fill:#ffc36e" d="M272.001 351c-13.255 0-24-10.745-24-24 0-6.084 2.337-11.575 6.068-15.805-12.335 1-22.068 11.212-22.068 23.805 0 13.255 10.745 24 24 24 7.171 0 13.534-3.209 17.932-8.195-.648.052-1.27.195-1.932.195z"/><circle style="fill:#ffd782" cx="304" cy="335" r="24"/><path style="fill:#ffc36e" d="M320.001 351c-13.255 0-24-10.745-24-24 0-6.084 2.337-11.575 6.068-15.805-12.335 1-22.068 11.212-22.068 23.805 0 13.255 10.745 24 24 24 7.171 0 13.534-3.209 17.932-8.195-.648.052-1.27.195-1.932.195z"/><circle style="fill:#ffd782" cx="329" cy="384" r="24"/><path style="fill:#ffc36e" d="M345.001 400c-13.255 0-24-10.745-24-24 0-6.084 2.337-11.575 6.068-15.805-12.335 1-22.068 11.212-22.068 23.805 0 13.255 10.745 24 24 24 7.171 0 13.534-3.209 17.932-8.195-.648.052-1.27.195-1.932.195z"/><circle style="fill:#ffd782" cx="280" cy="384" r="24"/><path style="fill:#ffc36e" d="M296.001 400c-13.255 0-24-10.745-24-24 0-6.084 2.337-11.575 6.068-15.805-12.335 1-22.068 11.212-22.068 23.805 0 13.255 10.745 24 24 24 7.171 0 13.534-3.209 17.932-8.195-.648.052-1.27.195-1.932.195z"/><circle style="fill:#ffd782" cx="233" cy="384" r="24"/><path style="fill:#ffc36e" d="M249.001 400c-13.255 0-24-10.745-24-24 0-6.084 2.337-11.575 6.068-15.805-12.335 1-22.068 11.212-22.068 23.805 0 13.255 10.745 24 24 24 7.171 0 13.534-3.209 17.932-8.195-.648.052-1.27.195-1.932.195z"/><circle style="fill:#ffd782" cx="183" cy="384" r="24"/><path style="fill:#ffc36e" d="M199.001 400c-13.255 0-24-10.745-24-24 0-6.084 2.337-11.575 6.068-15.805-12.335 1-22.068 11.212-22.068 23.805 0 13.255 10.745 24 24 24 7.171 0 13.534-3.209 17.932-8.195-.648.052-1.27.195-1.932.195z"/><circle style="fill:#ffd782" cx="145" cy="335" r="24"/><path style="fill:#ffc36e" d="M161.001 351c-13.255 0-24-10.745-24-24 0-6.084 2.337-11.575 6.068-15.805-12.335 1-22.068 11.212-22.068 23.805 0 13.255 10.745 24 24 24 7.171 0 13.534-3.209 17.932-8.195-.648.052-1.27.195-1.932.195z"/><circle style="fill:#ffd782" cx="137" cy="159" r="24"/><path style="fill:#ffc36e" d="M153.001 175c-13.255 0-24-10.745-24-24 0-6.084 2.337-11.575 6.068-15.805-12.335 1-22.068 11.212-22.068 23.805 0 13.255 10.745 24 24 24 7.171 0 13.534-3.209 17.932-8.195-.648.052-1.27.195-1.932.195z"/><circle style="fill:#ffd782" cx="96" cy="224" r="24"/><path style="fill:#ffc36e" d="M112.001 240c-13.255 0-24-10.745-24-24 0-6.084 2.337-11.575 6.068-15.805-12.335 1-22.068 11.212-22.068 23.805 0 13.255 10.745 24 24 24 7.171 0 13.534-3.209 17.932-8.195-.648.052-1.27.195-1.932.195z"/><circle style="fill:#ffd782" cx="240" cy="88" r="24"/><path style="fill:#ffc36e" d="M256.001 104c-13.255 0-24-10.745-24-24 0-6.084 2.337-11.575 6.068-15.805-12.335 1-22.068 11.212-22.068 23.805 0 13.255 10.745 24 24 24 7.171 0 13.534-3.209 17.932-8.195-.648.052-1.27.195-1.932.195z"/><circle style="fill:#ffd782" cx="376" cy="336" r="24"/><path style="fill:#ffc36e" d="M392.001 352c-13.255 0-24-10.745-24-24 0-6.084 2.337-11.575 6.068-15.805-12.335 1-22.068 11.212-22.068 23.805 0 13.255 10.745 24 24 24 7.171 0 13.534-3.209 17.932-8.195-.648.052-1.27.195-1.932.195z"/><path style="fill:#2d2b29" d="M472.001 123.216 356.785 8c-4.636-4.636-12.758-8-19.313-8h-162.94c-6.555 0-14.678 3.364-19.313 8L40.001 123.216c-4.636 4.636-8 12.759-8 19.314v162.94c0 6.556 3.364 14.679 8 19.314L146.41 431.193 114.989 496H96.001a8 8 0 0 0 0 16h23.959l.035.002.028-.002h39.978a8 8 0 0 0 0-16h-27.23l25.818-53.251c4.64 3.155 10.774 5.251 15.941 5.251h162.94c5.167 0 11.302-2.096 15.941-5.251L379.231 496h-27.23a8 8 0 0 0 0 16h39.978l.028.002.035-.002h23.959a8 8 0 0 0 0-16h-18.988l-31.421-64.807 106.409-106.409c4.636-4.636 8-12.759 8-19.314V142.53c0-6.555-3.364-14.678-8-19.314zM168.001 384c0-5.906 3.225-11.062 7.998-13.834l-7.815 16.12a15.962 15.962 0 0 1-.183-2.286zm24-48c0-5.468 2.76-10.299 6.957-13.186l-6.904 14.238c-.023-.349-.053-.697-.053-1.052zm151.817 50.286-7.815-16.12c4.773 2.772 7.998 7.928 7.998 13.834 0 .778-.075 1.537-.183 2.286zM256.001 320c8.822 0 16 7.178 16 16s-7.178 16-16 16-16-7.178-16-16 7.178-16 16-16zm-10.576-14.196a31.824 31.824 0 0 0-4.166 1.809 32.122 32.122 0 0 0 2.742-4.143c.443.799.916 1.579 1.424 2.334zm-16.06-9.029 1.809-3.73a15.991 15.991 0 0 1-1.809 3.73zm-12.551 25.885c4.325 2.867 7.187 7.773 7.187 13.34 0 8.822-7.178 16-16 16-1.753 0-3.436-.294-5.016-.817l13.829-28.523zm-23.46 48.386C197.372 373.955 200 378.672 200 384c0 8.822-7.178 16-16 16-1.521 0-2.987-.227-4.382-.625l13.736-28.329zM232.001 368c8.822 0 16 7.178 16 16s-7.178 16-16 16-16-7.178-16-16 7.178-16 16-16zm48 0c8.822 0 16 7.178 16 16s-7.178 16-16 16-16-7.178-16-16 7.178-16 16-16zm38.646 3.046 13.735 28.329A15.934 15.934 0 0 1 328 400c-8.822 0-16-7.178-16-16 .001-5.328 2.63-10.045 6.647-12.954zm1.301-33.993-6.904-14.238c4.197 2.887 6.957 7.718 6.957 13.186 0 .354-.03.702-.053 1.052zm-10.931 14.13c-1.58.523-3.263.817-5.016.817-8.822 0-16-7.178-16-16 0-5.566 2.861-10.473 7.187-13.34l13.829 28.523zM272.001 304c-8.822 0-16-7.178-16-16 0-8.369 6.462-15.246 14.657-15.932l13.014 26.841c-2.922 3.124-7.067 5.091-11.671 5.091zm-16-72c-4.411 0-8-3.589-8-8s3.589-8 8-8 8 3.589 8 8-3.589 8-8 8zm-2.9 15.818c.952.115 1.918.182 2.9.182s1.948-.066 2.9-.182l4.536 9.355c-8.341 2.32-15.319 7.936-19.436 15.356a31.958 31.958 0 0 0-1.616-2.61l10.716-22.101zm-44.204 54.496c-5.263-2.623-8.896-8.046-8.896-14.314 0-8.822 7.178-16 16-16 2.449 0 4.762.569 6.839 1.557l-13.943 28.757zm136.574 126.372c-1.611 1.611-5.723 3.314-8 3.314h-162.94c-2.277 0-6.389-1.703-8-3.314l-.756-.756 6.809-14.043A31.832 31.832 0 0 0 184.001 416c9.551 0 18.132-4.211 24-10.868 5.868 6.657 14.449 10.868 24 10.868s18.132-4.211 24-10.868c5.868 6.657 14.449 10.868 24 10.868s18.132-4.211 24-10.868c5.868 6.657 14.449 10.868 24 10.868 4.021 0 7.869-.753 11.417-2.113l6.809 14.043-.756.756zm118.53-123.216c0 2.277-1.703 6.39-3.313 8L358.203 415.954l-5.59-11.528c4.61-5.546 7.388-12.667 7.388-20.426 0-16.436-12.456-30.01-28.423-31.795A31.795 31.795 0 0 0 336.001 336c0-17.645-14.355-32-32-32l-.078.002-2.12-4.371A31.82 31.82 0 0 0 304 288c0-14.402-9.566-26.61-22.678-30.611l-8.097-16.7c4.189-4.323 6.775-10.208 6.775-16.688 0-13.233-10.766-24-24-24s-24 10.767-24 24c0 6.48 2.586 12.365 6.775 16.688l-8.949 18.456A31.792 31.792 0 0 0 216.001 256c-17.645 0-32 14.355-32 32 0 7.832 2.833 15.012 7.522 20.58-9.293 5.605-15.522 15.799-15.522 27.42a31.795 31.795 0 0 0 4.423 16.205 31.736 31.736 0 0 0-11.165 3.407c4.22-5.422 6.742-12.227 6.742-19.612 0-17.645-14.355-32-32-32s-32 14.355-32 32 14.355 32 32 32a31.8 31.8 0 0 0 14.742-3.612c-4.219 5.422-6.742 12.227-6.742 19.612 0 7.759 2.777 14.88 7.388 20.426l-5.59 11.528L51.314 313.47c-1.61-1.61-3.313-5.723-3.313-8V142.53c0-2.277 1.703-6.39 3.313-8L166.531 19.314c1.611-1.611 5.723-3.314 8-3.314h162.94c2.277 0 6.389 1.703 8 3.314L460.688 134.53c1.61 1.61 3.313 5.723 3.313 8v162.94zm-304 30.53c0 8.822-7.178 16-16 16s-16-7.178-16-16 7.178-16 16-16 16 7.178 16 16z"/><path style="fill:#2d2b29" d="M152.001 240c-17.645 0-32 14.355-32 32s14.355 32 32 32 32-14.355 32-32-14.355-32-32-32zm0 48c-8.822 0-16-7.178-16-16s7.178-16 16-16 16 7.178 16 16-7.178 16-16 16zM96.001 192c-17.645 0-32 14.355-32 32s14.355 32 32 32 32-14.355 32-32-14.355-32-32-32zm0 48c-8.822 0-16-7.178-16-16s7.178-16 16-16 16 7.178 16 16-7.178 16-16 16zM240.001 56c-17.645 0-32 14.355-32 32s14.355 32 32 32 32-14.355 32-32-14.355-32-32-32zm0 48c-8.822 0-16-7.178-16-16s7.178-16 16-16 16 7.178 16 16-7.178 16-16 16zM376.001 304c-17.645 0-32 14.355-32 32s14.355 32 32 32 32-14.355 32-32-14.355-32-32-32zm0 48c-8.822 0-16-7.178-16-16s7.178-16 16-16 16 7.178 16 16-7.178 16-16 16zM136.001 192c17.645 0 32-14.355 32-32s-14.355-32-32-32-32 14.355-32 32 14.355 32 32 32zm0-48c8.822 0 16 7.178 16 16s-7.178 16-16 16-16-7.178-16-16 7.178-16 16-16zM320.001 32h-16a8 8 0 0 0 0 16h16a8 8 0 0 0 0-16zM351.765 48.235a8.002 8.002 0 0 0-11.313 0 7.999 7.999 0 0 0 0 11.314l61.868 61.868a7.974 7.974 0 0 0 5.657 2.343 7.999 7.999 0 0 0 5.657-13.657l-61.869-61.868z"/></svg>